<?xml version="1.0" encoding="UTF-8"?>
<svg xmlns="http://www.w3.org/2000/svg" width="1024" height="1024" viewBox="0 0 1024 1024" fill="none">
  <defs>
    <linearGradient id="dishOuter" x1="274" y1="245" x2="749" y2="777" gradientUnits="userSpaceOnUse">
      <stop offset="0" stop-color="#6edbff"/>
      <stop offset="0.25" stop-color="#1f92ff"/>
      <stop offset="0.72" stop-color="#295cff"/>
      <stop offset="1" stop-color="#6d2fff"/>
    </linearGradient>
    <linearGradient id="dishInner" x1="389" y1="276" x2="743" y2="666" gradientUnits="userSpaceOnUse">
      <stop offset="0" stop-color="#0e2ea6"/>
      <stop offset="0.4" stop-color="#0b57d8"/>
      <stop offset="1" stop-color="#23d0f6"/>
    </linearGradient>
    <linearGradient id="baseGrad" x1="250" y1="909" x2="570" y2="519" gradientUnits="userSpaceOnUse">
      <stop offset="0" stop-color="#09134b"/>
      <stop offset="0.55" stop-color="#163d9e"/>
      <stop offset="1" stop-color="#6f8ee6"/>
    </linearGradient>
    <linearGradient id="armGrad" x1="522" y1="612" x2="678" y2="351" gradientUnits="userSpaceOnUse">
      <stop offset="0" stop-color="#d8e2ff"/>
      <stop offset="0.45" stop-color="#f8fbff"/>
      <stop offset="1" stop-color="#7d91ff"/>
    </linearGradient>
    <linearGradient id="nodeGrad" x1="621" y1="341" x2="711" y2="403" gradientUnits="userSpaceOnUse">
      <stop offset="0" stop-color="#e8f6ff"/>
      <stop offset="0.35" stop-color="#a9f0ff"/>
      <stop offset="1" stop-color="#2d3fe6"/>
    </linearGradient>
    <linearGradient id="waveGrad" x1="697" y1="189" x2="935" y2="361" gradientUnits="userSpaceOnUse">
      <stop offset="0" stop-color="#29d7ff"/>
      <stop offset="1" stop-color="#7360ff"/>
    </linearGradient>
    
  </defs>

  <g>
    <!-- pedestal -->
    <path d="M246 831h367c18 0 33 15 33 33v22H213v-22c0-18 15-33 33-33Z" fill="url(#baseGrad)"/>
    <path d="M319 831 436 590h82l144 241H319Z" fill="url(#baseGrad)"/>
    <path d="M376 595c0-57 46-103 103-103s103 46 103 103v18H376v-18Z" fill="url(#baseGrad)"/>
    <circle cx="380" cy="618" r="58" fill="#6f8ee6"/>
    <circle cx="380" cy="618" r="42" fill="#1f4db7"/>
    <circle cx="380" cy="618" r="28" fill="#1df2ff" opacity="0.8"/>

    <!-- dish backside -->
    <g transform="rotate(-32 526 498)">
      <ellipse cx="526" cy="498" rx="233" ry="333" fill="url(#dishOuter)"/>
      <ellipse cx="540" cy="485" rx="186" ry="273" fill="url(#dishInner)"/>
      <ellipse cx="526" cy="498" rx="233" ry="333" fill="none" stroke="#aef5ff" stroke-width="14"/>
      <ellipse cx="540" cy="485" rx="186" ry="273" fill="none" stroke="#4bc8ff" stroke-width="4" opacity="0.55"/>
      <path d="M355 484c54-79 113-117 188-124" stroke="#4bc8ff" stroke-width="3" opacity="0.55"/>
      <path d="M392 578c80-62 164-77 256-46" stroke="#4bc8ff" stroke-width="3" opacity="0.45"/>
      <path d="M438 655c98-30 178-25 251 18" stroke="#4bc8ff" stroke-width="3" opacity="0.4"/>
    </g>

    <!-- support arms -->
    <path d="M493 562 651 378l23 22-157 198-24-36Z" fill="url(#armGrad)"/>
    <path d="M616 694 674 401l34 10-54 307-38-24Z" fill="url(#armGrad)"/>
    <path d="M404 469 643 373l17 35-247 92-9-31Z" fill="url(#armGrad)"/>

    <!-- feed node -->
    <circle cx="674" cy="389" r="47" fill="url(#nodeGrad)"/>
    <circle cx="674" cy="389" r="24" fill="#90fbff"/>
    <circle cx="674" cy="389" r="10" fill="#ffffff" opacity="0.9"/>

    <!-- signal waves -->
    <path d="M704 389a95 95 0 0 1 113-91" stroke="url(#waveGrad)" stroke-width="28" stroke-linecap="round"/>
    <path d="M732 334a160 160 0 0 1 168-136" stroke="url(#waveGrad)" stroke-width="28" stroke-linecap="round"/>
    <path d="M770 292a225 225 0 0 1 189-133" stroke="url(#waveGrad)" stroke-width="28" stroke-linecap="round"/>
  </g>
</svg>
