<svg xmlns="http://www.w3.org/2000/svg" viewBox="0 0 1024 1024" role="img" aria-labelledby="title desc">
  <title id="title">NodeRelay Hub Spoke Icon</title>
  <desc id="desc">Circular relay hub connected to six network nodes.</desc>
  <defs>
    <linearGradient id="g" x1="120" y1="900" x2="900" y2="120" gradientUnits="userSpaceOnUse"><stop stop-color="#0d63ff"/><stop offset=".5" stop-color="#09b7ff"/><stop offset="1" stop-color="#24efd0"/></linearGradient>
    <linearGradient id="darkg" x1="160" y1="810" x2="850" y2="190" gradientUnits="userSpaceOnUse"><stop stop-color="#0b1b42"/><stop offset="1" stop-color="#0e304f"/></linearGradient>
    <filter id="glow"><feGaussianBlur stdDeviation="6" result="b"/><feMerge><feMergeNode in="b"/><feMergeNode in="SourceGraphic"/></feMerge></filter>
  </defs>
  <g filter="url(#glow)" fill="none" stroke-linecap="round" stroke-linejoin="round">
    <circle cx="512" cy="512" r="412" stroke="url(#g)" stroke-width="28"/>
    <circle cx="512" cy="512" r="254" stroke="url(#g)" stroke-width="8" stroke-dasharray="1 28"/>
    <g stroke="url(#g)" stroke-width="28">
      <path d="M512 512V226"/><path d="M512 512V798"/>
      <path d="M512 512L264 369"/><path d="M512 512L760 369"/>
      <path d="M512 512L264 655"/><path d="M512 512L760 655"/>
    </g>
    <circle cx="512" cy="512" r="136" fill="url(#darkg)" stroke="url(#g)" stroke-width="30"/>
    <path d="M432 455a112 112 0 0 1 160 0M421 512a91 91 0 0 1 0-1M603 512a91 91 0 0 1 0-1M432 569a112 112 0 0 0 160 0" stroke="#26e6ff" stroke-width="22"/>
    <circle cx="512" cy="512" r="46" fill="#fff" stroke="#10dff0" stroke-width="12"/>
    <g fill="#fff" stroke="url(#g)" stroke-width="28">
      <circle cx="512" cy="180" r="60"/><circle cx="512" cy="844" r="60"/>
      <circle cx="224" cy="346" r="60"/><circle cx="800" cy="346" r="60"/>
      <circle cx="224" cy="678" r="60"/><circle cx="800" cy="678" r="60"/>
    </g>
    <g fill="url(#g)" stroke="none"><circle cx="512" cy="180" r="25"/><circle cx="512" cy="844" r="25"/><circle cx="224" cy="346" r="25"/><circle cx="800" cy="346" r="25"/><circle cx="224" cy="678" r="25"/><circle cx="800" cy="678" r="25"/></g>
  </g>
</svg>
